<?xml version="1.0" encoding="utf-8" ?>
<svg xmlns="http://www.w3.org/2000/svg" xmlns:xlink="http://www.w3.org/1999/xlink" width="455" height="455">
	<defs>
		<linearGradient id="gradient_0" gradientUnits="userSpaceOnUse" x1="460.97888" y1="382.43808" x2="98.488953" y2="180.19434">
			<stop offset="0" stop-color="#579EF9"/>
			<stop offset="1" stop-color="#B1D1F4"/>
		</linearGradient>
	</defs>
	<path fill="url(#gradient_0)" transform="matrix(0.888672 0 0 0.888672 0.000244141 1.52588e-05)" d="M138.495 104.391C158.905 98.133 180.673 99.7085 201.719 99.7092L318.787 99.705C330.575 99.7037 342.518 99.246 354.24 100.674C403.873 106.72 443.379 139.564 458.199 187.873C464.082 207.048 465.216 223.941 467.181 243.508L472.44 296.143C473.806 309.856 477.175 328.24 476.494 341.385C473.44 400.293 399.975 428.67 359.365 388.937C356.181 385.822 353.509 382.204 350.778 378.698L340.053 364.78C333.633 356.408 326.852 348.315 320.503 339.891C311.74 328.264 304.452 316.834 290.246 311.611C279.092 307.509 234.604 307.514 223.464 310.814C208.571 315.226 203.612 323.239 194.709 334.695C182.338 350.613 169.446 370.441 156.362 385.244C121.774 424.38 55.312 409.792 40.2179 359.151C35.0989 341.976 36.3349 331.215 38.0042 314.048C39.1227 295.709 41.2699 277.595 43.0631 259.331C46.6948 222.342 47.2852 191.917 67.2503 158.937C82.35 133.995 109.634 111.468 138.495 104.391Z"/>
	<path fill="#B0D3F8" transform="matrix(0.888672 0 0 0.888672 0.000244141 1.52588e-05)" d="M138.495 104.391C140.139 105.314 142.873 104.27 144.636 104.562C146.165 104.815 146.432 106.268 148.193 105.334L148.554 105.377C149.716 105.503 150.601 105.464 151.757 105.195L151.963 105.325C151.171 106.492 149.425 107.203 148.071 107.481L148.034 107.758C152.447 112.342 148.191 111.224 143.822 113.336C136.335 116.954 133.212 133.087 129.417 140.527C127.681 143.931 124.721 146.372 122.694 149.534L104.597 178.338C101.791 182.799 87.9269 208.964 89.0197 210.861C89.915 212.416 83.9597 227.146 82.7642 228.824C77.6076 236.062 80.6335 229.442 80.2858 237.789C80.1039 242.154 77.7341 246.963 77.6498 250.35L78.1128 250.731L78.126 251.377C77.618 251.82 77.2092 251.782 76.5653 251.828C76.398 254.384 78.041 257.052 74.6193 257.608L73.1345 259.012L73.1564 259.374C73.7389 259.401 74.3063 259.403 74.8889 259.38L74.9969 259.62C65.1514 259.606 65.7263 269.78 62.306 276.918C58.2834 285.313 52.5818 290.13 48.9776 300.516C47.9523 303.471 44.4465 316.921 39.4737 313.17C38.7418 312.617 38.3892 311.428 38.4337 313.366L38.0042 314.048C39.1227 295.709 41.2699 277.595 43.0631 259.331C46.6948 222.342 47.2852 191.917 67.2503 158.937C82.35 133.995 109.634 111.468 138.495 104.391Z"/>
	<defs>
		<linearGradient id="gradient_1" gradientUnits="userSpaceOnUse" x1="208.82382" y1="229.84908" x2="113.39501" y2="194.60112">
			<stop offset="0" stop-color="#A6C9E8"/>
			<stop offset="1" stop-color="#F2F5F0"/>
		</linearGradient>
	</defs>
	<path fill="url(#gradient_1)" transform="matrix(0.888672 0 0 0.888672 0.000244141 1.52588e-05)" d="M140.219 193.017C140.297 183.755 138.559 173.647 145.698 166.374C153.876 158.044 167.627 158.13 175.86 166.393C183.113 173.673 181.983 183.608 181.955 193.017C188.808 192.988 196.858 192.181 203.144 195.364C213.196 200.454 216.477 213.899 211.461 223.675C210.773 224.702 210.118 225.777 209.311 226.715C208.66 227.464 208.046 228.224 207.243 228.818C205.989 230.125 204.626 231.042 203.007 231.841C196.48 234.672 188.919 234.023 181.955 234.02C181.99 242.204 182.269 251.327 176.158 257.585C168.08 265.857 154.282 266.353 146.065 258.023C139.253 251.118 140.204 242.967 140.219 234.02C130.778 234.012 120.725 235.717 113.371 228.444C105.229 220.394 105.628 206.595 113.734 198.666C120.99 191.569 130.928 192.978 140.219 193.017Z"/>
	<path fill="#B0D3F8" transform="matrix(0.888672 0 0 0.888672 0.000244141 1.52588e-05)" d="M209.311 226.715C208.748 225.712 207.757 225.987 207.319 225.109C208.021 223.539 210.113 222.357 211.461 223.675C210.773 224.702 210.118 225.777 209.311 226.715Z"/>
	<path fill="#B0D3F8" transform="matrix(0.888672 0 0 0.888672 0.000244141 1.52588e-05)" d="M203.007 231.841C203.003 231.583 203.018 231.741 202.888 231.341L202.772 230.992C203.818 227.962 205.005 230.354 206.562 228.67L207.243 228.818C205.989 230.125 204.626 231.042 203.007 231.841Z"/>
	<path fill="#A7CAF7" transform="matrix(0.888672 0 0 0.888672 0.000244141 1.52588e-05)" d="M386.075 196.143Q386.534 196.085 386.995 196.05Q387.455 196.015 387.918 196.002Q388.38 195.99 388.842 196Q389.304 196.01 389.765 196.043Q390.226 196.076 390.685 196.131Q391.144 196.186 391.6 196.264Q392.055 196.342 392.507 196.442Q392.958 196.542 393.404 196.664Q393.85 196.786 394.289 196.93Q394.728 197.073 395.16 197.238Q395.592 197.403 396.015 197.589Q396.438 197.775 396.852 197.982Q397.265 198.188 397.668 198.415Q398.071 198.641 398.463 198.887Q398.854 199.134 399.233 199.398Q399.612 199.663 399.977 199.946Q400.342 200.23 400.693 200.53Q401.044 200.831 401.38 201.149Q401.716 201.466 402.036 201.8Q402.356 202.133 402.659 202.482Q402.963 202.831 403.248 203.195Q403.534 203.558 403.802 203.935Q404.069 204.312 404.318 204.701Q404.567 205.091 404.796 205.492Q405.026 205.894 405.235 206.306Q405.445 206.718 405.634 207.139Q405.823 207.561 405.991 207.992Q406.159 208.423 406.306 208.861Q406.453 209.299 406.578 209.744Q406.703 210.189 406.806 210.64Q406.909 211.09 406.99 211.545Q407.071 212 407.13 212.459Q407.189 212.918 407.225 213.378Q407.261 213.839 407.274 214.301Q407.288 214.763 407.278 215.226Q407.269 215.688 407.237 216.149Q407.205 216.61 407.151 217.069Q407.097 217.528 407.02 217.984Q406.943 218.44 406.844 218.891Q406.745 219.343 406.623 219.789Q406.502 220.235 406.36 220.675Q406.217 221.114 406.053 221.546Q405.888 221.978 405.703 222.402Q405.518 222.826 405.312 223.239Q405.107 223.653 404.881 224.057Q404.655 224.46 404.41 224.852Q404.165 225.244 403.9 225.623Q403.636 226.003 403.354 226.368Q403.071 226.734 402.771 227.086Q402.471 227.438 402.154 227.774Q401.837 228.111 401.504 228.431Q401.171 228.752 400.823 229.056Q400.475 229.36 400.112 229.646Q399.749 229.933 399.373 230.201Q398.996 230.469 398.607 230.719Q398.218 230.969 397.817 231.199Q397.416 231.429 397.005 231.639Q396.593 231.85 396.172 232.039Q395.75 232.229 395.32 232.398Q394.89 232.567 394.452 232.715Q394.014 232.863 393.569 232.989Q393.124 233.115 392.674 233.219Q392.223 233.323 391.768 233.405Q391.313 233.487 390.855 233.546Q390.396 233.606 389.934 233.643Q389.472 233.68 389.008 233.694Q388.545 233.708 388.082 233.7Q387.619 233.691 387.156 233.66Q386.694 233.629 386.234 233.575Q385.773 233.521 385.316 233.444Q384.859 233.368 384.407 233.269Q383.954 233.17 383.507 233.049Q383.059 232.928 382.618 232.785Q382.178 232.642 381.744 232.478Q381.311 232.314 380.886 232.129Q380.462 231.943 380.047 231.737Q379.632 231.531 379.227 231.305Q378.823 231.079 378.43 230.833Q378.037 230.587 377.657 230.323Q377.276 230.058 376.909 229.775Q376.543 229.492 376.19 229.191Q375.838 228.89 375.5 228.572Q375.163 228.254 374.842 227.92Q374.52 227.587 374.216 227.237Q373.911 226.888 373.625 226.524Q373.338 226.16 373.069 225.783Q372.8 225.405 372.55 225.015Q372.3 224.625 372.07 224.223Q371.84 223.82 371.629 223.408Q371.419 222.995 371.229 222.572Q371.039 222.149 370.87 221.718Q370.702 221.286 370.554 220.847Q370.407 220.408 370.281 219.961Q370.155 219.515 370.052 219.064Q369.948 218.612 369.867 218.156Q369.786 217.7 369.727 217.24Q369.668 216.78 369.632 216.318Q369.596 215.856 369.583 215.393Q369.569 214.93 369.579 214.467Q369.588 214.003 369.62 213.541Q369.652 213.079 369.707 212.618Q369.762 212.158 369.839 211.701Q369.917 211.244 370.017 210.792Q370.116 210.339 370.238 209.892Q370.36 209.445 370.504 209.005Q370.647 208.564 370.812 208.131Q370.978 207.698 371.164 207.274Q371.35 206.849 371.557 206.434Q371.764 206.02 371.991 205.616Q372.218 205.212 372.464 204.819Q372.711 204.427 372.976 204.047Q373.242 203.667 373.526 203.301Q373.809 202.935 374.111 202.583Q374.412 202.231 374.731 201.894Q375.049 201.557 375.384 201.237Q375.718 200.916 376.068 200.612Q376.418 200.309 376.783 200.022Q377.147 199.736 377.525 199.468Q377.903 199.2 378.294 198.951Q378.685 198.702 379.087 198.472Q379.49 198.243 379.903 198.033Q380.317 197.824 380.74 197.635Q381.163 197.446 381.595 197.278Q382.027 197.11 382.466 196.963Q382.906 196.817 383.352 196.692Q383.799 196.567 384.251 196.464Q384.702 196.362 385.159 196.281Q385.615 196.201 386.075 196.143Z"/>
	<path fill="#A7CAF7" transform="matrix(0.888672 0 0 0.888672 0.000244141 1.52588e-05)" d="M311.949 196.436Q312.403 196.344 312.861 196.275Q313.319 196.205 313.779 196.158Q314.24 196.111 314.702 196.087Q315.165 196.063 315.628 196.061Q316.091 196.06 316.554 196.081Q317.016 196.103 317.477 196.147Q317.938 196.191 318.396 196.257Q318.855 196.324 319.309 196.413Q319.763 196.502 320.213 196.613Q320.662 196.724 321.106 196.857Q321.549 196.991 321.986 197.145Q322.422 197.3 322.851 197.476Q323.279 197.652 323.698 197.849Q324.117 198.046 324.526 198.263Q324.935 198.481 325.333 198.718Q325.731 198.955 326.116 199.211Q326.502 199.467 326.875 199.742Q327.247 200.017 327.606 200.31Q327.964 200.603 328.308 200.913Q328.652 201.224 328.98 201.55Q329.308 201.877 329.62 202.22Q329.932 202.562 330.226 202.919Q330.521 203.277 330.797 203.648Q331.074 204.02 331.332 204.404Q331.59 204.789 331.829 205.185Q332.068 205.582 332.287 205.99Q332.506 206.398 332.704 206.816Q332.903 207.235 333.081 207.662Q333.259 208.09 333.416 208.525Q333.572 208.961 333.708 209.404Q333.843 209.847 333.956 210.296Q334.069 210.745 334.16 211.199Q334.251 211.653 334.32 212.111Q334.388 212.569 334.434 213.03Q334.48 213.49 334.503 213.953Q334.527 214.415 334.527 214.879Q334.528 215.342 334.506 215.804Q334.484 216.267 334.439 216.728Q334.394 217.188 334.326 217.647Q334.259 218.105 334.169 218.559Q334.079 219.013 333.967 219.462Q333.855 219.912 333.721 220.355Q333.587 220.798 333.431 221.234Q333.275 221.67 333.099 222.098Q332.922 222.526 332.724 222.945Q332.526 223.364 332.308 223.772Q332.09 224.181 331.852 224.578Q331.614 224.975 331.357 225.361Q331.1 225.746 330.825 226.118Q330.549 226.49 330.255 226.848Q329.962 227.206 329.651 227.549Q329.34 227.892 329.013 228.22Q328.685 228.547 328.342 228.858Q327.999 229.169 327.641 229.463Q327.283 229.757 326.911 230.033Q326.539 230.309 326.154 230.566Q325.769 230.823 325.372 231.061Q324.975 231.299 324.567 231.518Q324.158 231.736 323.739 231.934Q323.321 232.132 322.893 232.309Q322.465 232.486 322.029 232.642Q321.593 232.798 321.15 232.932Q320.707 233.066 320.257 233.179Q319.808 233.291 319.354 233.381Q318.901 233.471 318.444 233.538Q317.987 233.606 317.527 233.651Q317.068 233.696 316.606 233.719Q316.145 233.741 315.683 233.741Q315.221 233.741 314.76 233.718Q314.298 233.696 313.839 233.65Q313.379 233.605 312.922 233.537Q312.465 233.469 312.012 233.379Q311.559 233.289 311.111 233.177Q310.663 233.065 310.221 232.931Q309.779 232.797 309.344 232.641Q308.909 232.486 308.482 232.309Q308.055 232.132 307.638 231.935Q307.22 231.738 306.813 231.52Q306.405 231.302 306.009 231.065Q305.612 230.828 305.228 230.571Q304.844 230.315 304.473 230.04Q304.102 229.765 303.745 229.472Q303.387 229.179 303.045 228.869Q302.702 228.559 302.375 228.233Q302.049 227.907 301.738 227.565Q301.428 227.223 301.134 226.866Q300.841 226.509 300.565 226.138Q300.29 225.767 300.033 225.384Q299.776 225 299.538 224.604Q299.3 224.208 299.082 223.801Q298.864 223.394 298.666 222.976Q298.468 222.559 298.291 222.132Q298.113 221.706 297.957 221.271Q297.801 220.836 297.666 220.395Q297.532 219.953 297.419 219.505Q297.306 219.057 297.215 218.604Q297.124 218.151 297.056 217.694Q296.987 217.237 296.941 216.778Q296.895 216.318 296.872 215.857Q296.848 215.396 296.848 214.934Q296.847 214.472 296.869 214.01Q296.891 213.549 296.935 213.089Q296.979 212.629 297.046 212.172Q297.113 211.715 297.202 211.262Q297.292 210.809 297.403 210.36Q297.514 209.912 297.647 209.47Q297.781 209.028 297.935 208.592Q298.09 208.157 298.266 207.73Q298.442 207.303 298.638 206.885Q298.835 206.467 299.052 206.059Q299.268 205.651 299.505 205.254Q299.741 204.857 299.997 204.473Q300.253 204.088 300.527 203.716Q300.801 203.345 301.093 202.987Q301.386 202.629 301.695 202.286Q302.004 201.943 302.33 201.615Q302.656 201.288 302.997 200.977Q303.339 200.665 303.695 200.371Q304.051 200.077 304.421 199.801Q304.792 199.525 305.175 199.267Q305.558 199.009 305.954 198.771Q306.349 198.532 306.756 198.313Q307.163 198.094 307.58 197.895Q307.996 197.697 308.423 197.518Q308.849 197.34 309.283 197.183Q309.718 197.026 310.159 196.891Q310.601 196.755 311.049 196.641Q311.496 196.528 311.949 196.436Z"/>
	<path fill="#A7CAF7" transform="matrix(0.888672 0 0 0.888672 0.000244141 1.52588e-05)" d="M349.819 233.878Q350.275 233.827 350.733 233.799Q351.191 233.771 351.65 233.765Q352.108 233.759 352.567 233.775Q353.025 233.792 353.483 233.831Q353.94 233.87 354.394 233.931Q354.849 233.992 355.3 234.076Q355.751 234.159 356.198 234.265Q356.644 234.37 357.085 234.497Q357.526 234.624 357.96 234.773Q358.394 234.922 358.821 235.091Q359.247 235.261 359.664 235.451Q360.082 235.641 360.49 235.852Q360.897 236.062 361.294 236.293Q361.691 236.523 362.076 236.772Q362.461 237.022 362.834 237.289Q363.206 237.557 363.565 237.843Q363.924 238.129 364.268 238.432Q364.613 238.735 364.942 239.054Q365.272 239.374 365.585 239.709Q365.898 240.044 366.194 240.395Q366.491 240.745 366.77 241.109Q367.049 241.473 367.31 241.851Q367.57 242.228 367.812 242.618Q368.055 243.008 368.277 243.409Q368.5 243.81 368.703 244.222Q368.905 244.633 369.088 245.054Q369.27 245.475 369.432 245.905Q369.593 246.334 369.734 246.771Q369.874 247.208 369.993 247.651Q370.112 248.094 370.208 248.542Q370.305 248.991 370.38 249.444Q370.455 249.896 370.508 250.352Q370.561 250.808 370.591 251.266Q370.621 251.723 370.629 252.182Q370.637 252.641 370.622 253.099Q370.608 253.558 370.571 254.015Q370.534 254.473 370.474 254.927Q370.415 255.382 370.334 255.834Q370.252 256.285 370.149 256.732Q370.045 257.179 369.92 257.621Q369.794 258.062 369.648 258.497Q369.501 258.931 369.333 259.358Q369.165 259.785 368.977 260.204Q368.788 260.622 368.58 261.031Q368.371 261.439 368.142 261.837Q367.914 262.235 367.666 262.621Q367.419 263.007 367.152 263.381Q366.886 263.754 366.602 264.115Q366.317 264.475 366.016 264.82Q365.714 265.166 365.396 265.497Q365.078 265.828 364.744 266.142Q364.41 266.457 364.062 266.755Q363.713 267.053 363.35 267.333Q362.987 267.614 362.61 267.876Q362.234 268.139 361.845 268.382Q361.456 268.626 361.056 268.85Q360.656 269.075 360.245 269.279Q359.835 269.484 359.414 269.668Q358.994 269.852 358.566 270.016Q358.137 270.179 357.701 270.321Q357.264 270.463 356.822 270.584Q356.379 270.705 355.931 270.804Q355.483 270.903 355.031 270.979Q354.579 271.056 354.123 271.111Q353.665 271.166 353.205 271.198Q352.745 271.231 352.283 271.24Q351.822 271.25 351.361 271.237Q350.9 271.224 350.44 271.188Q349.98 271.152 349.523 271.094Q349.065 271.036 348.611 270.955Q348.157 270.874 347.707 270.771Q347.257 270.668 346.813 270.543Q346.369 270.418 345.932 270.271Q345.495 270.125 345.065 269.957Q344.635 269.789 344.215 269.6Q343.794 269.411 343.383 269.201Q342.972 268.992 342.572 268.762Q342.171 268.533 341.783 268.284Q341.394 268.035 341.019 267.768Q340.643 267.5 340.281 267.214Q339.919 266.928 339.571 266.625Q339.224 266.322 338.891 266.002Q338.559 265.682 338.243 265.346Q337.927 265.01 337.628 264.659Q337.328 264.308 337.047 263.942Q336.765 263.577 336.502 263.198Q336.239 262.819 335.995 262.428Q335.75 262.037 335.526 261.634Q335.301 261.231 335.096 260.818Q334.891 260.404 334.707 259.981Q334.523 259.558 334.36 259.127Q334.197 258.695 334.056 258.256Q333.914 257.817 333.794 257.372Q333.674 256.926 333.577 256.475Q333.479 256.024 333.403 255.569Q333.328 255.114 333.275 254.656Q333.222 254.198 333.192 253.737Q333.161 253.277 333.154 252.816Q333.146 252.355 333.161 251.894Q333.176 251.432 333.214 250.973Q333.251 250.513 333.312 250.056Q333.372 249.598 333.455 249.144Q333.537 248.691 333.642 248.241Q333.747 247.792 333.874 247.349Q334.001 246.905 334.149 246.468Q334.298 246.032 334.468 245.603Q334.638 245.174 334.829 244.754Q335.019 244.334 335.23 243.924Q335.442 243.514 335.673 243.114Q335.904 242.715 336.154 242.328Q336.405 241.94 336.674 241.566Q336.943 241.191 337.231 240.83Q337.518 240.469 337.823 240.123Q338.128 239.777 338.449 239.446Q338.771 239.115 339.108 238.8Q339.445 238.486 339.797 238.188Q340.15 237.89 340.517 237.61Q340.883 237.33 341.263 237.069Q341.643 236.807 342.035 236.564Q342.428 236.322 342.832 236.099Q343.235 235.876 343.65 235.673Q344.064 235.47 344.488 235.288Q344.911 235.105 345.344 234.944Q345.776 234.783 346.216 234.643Q346.655 234.504 347.101 234.386Q347.547 234.268 347.998 234.172Q348.45 234.076 348.905 234.003Q349.361 233.929 349.819 233.878Z"/>
	<path fill="#A7CAF7" transform="matrix(0.888672 0 0 0.888672 0.000244141 1.52588e-05)" d="M348.784 157.243Q349.234 157.167 349.687 157.113Q350.14 157.059 350.595 157.028Q351.05 156.996 351.506 156.987Q351.961 156.978 352.417 156.992Q352.873 157.005 353.328 157.041Q353.783 157.076 354.235 157.134Q354.687 157.192 355.136 157.273Q355.585 157.353 356.03 157.455Q356.474 157.557 356.913 157.681Q357.352 157.805 357.785 157.95Q358.217 158.095 358.642 158.261Q359.066 158.428 359.482 158.615Q359.898 158.802 360.305 159.009Q360.711 159.216 361.107 159.443Q361.502 159.67 361.886 159.916Q362.27 160.162 362.642 160.427Q363.013 160.691 363.371 160.974Q363.729 161.256 364.073 161.556Q364.417 161.856 364.745 162.172Q365.074 162.489 365.386 162.821Q365.699 163.153 365.995 163.5Q366.291 163.847 366.569 164.208Q366.848 164.569 367.108 164.944Q367.369 165.318 367.611 165.705Q367.852 166.092 368.075 166.49Q368.297 166.888 368.5 167.297Q368.702 167.705 368.885 168.123Q369.067 168.541 369.229 168.968Q369.39 169.394 369.53 169.828Q369.671 170.262 369.79 170.703Q369.909 171.143 370.006 171.589Q370.103 172.034 370.178 172.484Q370.253 172.934 370.306 173.387Q370.359 173.84 370.39 174.295Q370.42 174.75 370.428 175.206Q370.437 175.662 370.422 176.118Q370.408 176.574 370.372 177.029Q370.335 177.483 370.276 177.936Q370.217 178.388 370.136 178.837Q370.055 179.285 369.952 179.73Q369.849 180.174 369.725 180.613Q369.6 181.052 369.454 181.484Q369.308 181.916 369.141 182.34Q368.973 182.765 368.786 183.18Q368.598 183.596 368.39 184.002Q368.182 184.408 367.954 184.803Q367.727 185.198 367.48 185.582Q367.233 185.965 366.968 186.336Q366.702 186.707 366.419 187.065Q366.136 187.422 365.835 187.765Q365.535 188.108 365.218 188.436Q364.901 188.764 364.568 189.076Q364.235 189.388 363.888 189.684Q363.54 189.979 363.178 190.257Q362.817 190.534 362.442 190.794Q362.067 191.054 361.679 191.295Q361.292 191.536 360.894 191.758Q360.495 191.979 360.086 192.181Q359.677 192.383 359.258 192.564Q358.84 192.746 358.413 192.906Q357.986 193.067 357.552 193.207Q357.118 193.346 356.677 193.464Q356.237 193.582 355.791 193.679Q355.345 193.775 354.895 193.849Q354.446 193.923 353.994 193.975Q353.542 194.027 353.088 194.057Q352.634 194.086 352.179 194.094Q351.724 194.101 351.269 194.087Q350.815 194.072 350.361 194.035Q349.908 193.997 349.457 193.938Q349.006 193.879 348.558 193.798Q348.11 193.716 347.667 193.613Q347.224 193.51 346.787 193.385Q346.349 193.26 345.918 193.114Q345.487 192.968 345.064 192.801Q344.641 192.634 344.226 192.447Q343.812 192.259 343.407 192.052Q343.002 191.844 342.608 191.617Q342.214 191.389 341.831 191.143Q341.449 190.897 341.078 190.632Q340.708 190.367 340.352 190.085Q339.995 189.802 339.653 189.503Q339.311 189.203 338.983 188.887Q338.656 188.571 338.345 188.239Q338.033 187.907 337.739 187.561Q337.444 187.214 337.166 186.854Q336.889 186.493 336.63 186.119Q336.37 185.745 336.13 185.359Q335.889 184.973 335.667 184.576Q335.446 184.178 335.244 183.771Q335.042 183.363 334.861 182.946Q334.679 182.529 334.518 182.103Q334.357 181.677 334.217 181.244Q334.077 180.811 333.959 180.372Q333.841 179.933 333.744 179.488Q333.647 179.044 333.572 178.595Q333.497 178.146 333.444 177.694Q333.391 177.242 333.361 176.789Q333.33 176.335 333.322 175.88Q333.314 175.425 333.328 174.97Q333.341 174.515 333.378 174.062Q333.414 173.608 333.472 173.157Q333.531 172.706 333.611 172.258Q333.692 171.81 333.794 171.367Q333.896 170.924 334.02 170.486Q334.144 170.048 334.289 169.617Q334.435 169.186 334.601 168.762Q334.767 168.339 334.954 167.924Q335.14 167.509 335.347 167.104Q335.554 166.699 335.781 166.304Q336.007 165.909 336.253 165.526Q336.498 165.143 336.762 164.773Q337.026 164.402 337.308 164.045Q337.59 163.688 337.889 163.345Q338.188 163.002 338.503 162.674Q338.818 162.346 339.15 162.034Q339.481 161.722 339.827 161.427Q340.173 161.132 340.533 160.854Q340.893 160.576 341.266 160.315Q341.639 160.055 342.025 159.814Q342.411 159.572 342.808 159.35Q343.205 159.128 343.612 158.925Q344.019 158.722 344.436 158.54Q344.853 158.358 345.278 158.196Q345.703 158.034 346.136 157.894Q346.569 157.753 347.008 157.633Q347.447 157.514 347.891 157.416Q348.335 157.319 348.784 157.243Z"/>
</svg>
